<svg version="1.1" id="Layer_1" xmlns="http://www.w3.org/2000/svg" xmlns:xlink="http://www.w3.org/1999/xlink" x="0px" y="0px"
	 width="100%" viewBox="0 0 1280 720" enable-background="new 0 0 1280 720" xml:space="preserve">
<path fill="#1F4E79" opacity="1.000000" stroke="none" 
	d="
M914.000000,721.000000 
	C609.371338,721.000000 305.242645,721.000000 1.056973,721.000000 
	C1.056973,481.067963 1.056973,241.135910 1.056973,1.101927 
	C427.545441,1.101927 854.090881,1.101927 1280.818115,1.101927 
	C1280.818115,240.999893 1280.818115,480.999939 1280.818115,721.000000 
	C1158.802368,721.000000 1036.651245,721.000000 914.000000,721.000000 
M744.297729,474.808472 
	C749.143188,471.278259 753.984680,467.742615 758.834656,464.218658 
	C788.202087,442.880249 817.552490,421.518463 846.967102,400.245392 
	C850.179016,397.922546 852.622742,395.652985 851.076782,391.242950 
	C850.711792,390.201935 851.002991,388.928741 851.002991,387.762329 
	C851.001953,320.769867 851.001831,253.777390 851.003418,186.784912 
	C851.003418,185.451981 850.702698,184.014877 851.094666,182.805405 
	C852.329407,178.995041 850.575012,177.006042 847.448059,175.203949 
	C779.701477,136.160965 711.977417,97.078972 644.306335,57.905449 
	C640.967712,55.972782 638.432434,56.107082 635.181580,58.065796 
	C568.766968,98.082085 502.306030,138.021515 435.803436,177.891403 
	C431.615082,180.402420 429.916992,183.565140 429.925476,188.461899 
	C430.035034,251.621292 430.036102,314.780975 429.919434,377.940338 
	C429.910889,382.567322 431.537781,385.733307 434.959320,388.669769 
	C451.016113,402.450195 466.928650,416.398743 482.892151,430.287933 
	C501.118011,446.145416 519.334229,462.014008 537.575500,477.853760 
	C541.926392,481.631927 543.709229,481.490295 547.543762,477.169830 
	C550.418945,473.930206 553.497009,470.819275 555.962769,467.286713 
	C557.481995,465.110107 558.856689,462.253815 558.872009,459.694153 
	C559.065796,427.365631 558.972473,395.035461 559.031677,362.705902 
	C559.040283,357.996033 556.667236,356.048920 552.282593,356.011841 
	C547.116821,355.968170 541.950439,355.982483 536.784424,356.002014 
	C529.504456,356.029480 528.006409,357.512604 528.002319,364.761688 
	C527.990112,386.092621 528.003296,407.423553 527.985657,428.754486 
	C527.984558,430.133942 527.806824,431.513306 527.662476,433.597656 
	C504.940887,413.810913 482.814575,394.602692 460.829163,375.234528 
	C459.620605,374.169861 459.078247,371.775513 459.075500,369.998749 
	C458.986572,312.338715 459.021606,254.678467 458.943329,197.018387 
	C458.939514,194.206421 459.722412,192.572632 462.212250,191.081528 
	C520.311279,156.287384 578.364563,121.416550 636.374084,86.473236 
	C638.969849,84.909622 640.896179,84.726479 643.591797,86.286781 
	C703.632080,121.041122 763.718811,155.715500 823.836426,190.336090 
	C826.106384,191.643295 827.075806,192.973282 827.071350,195.735672 
	C826.974854,255.895432 827.020569,316.055420 826.884827,376.215027 
	C826.880859,377.976013 825.660095,380.355225 824.238037,381.399628 
	C799.677917,399.437256 774.999939,417.314392 750.329834,435.201904 
	C749.489807,435.811035 748.463562,436.163330 747.477417,436.658783 
	C747.477417,371.486389 747.477417,306.724304 747.477417,241.456543 
	C751.703674,241.456543 755.629822,241.456543 759.231628,241.456543 
	C750.419617,232.568039 741.706848,223.779587 733.805664,215.809784 
	C725.519958,224.106522 716.798889,232.839218 708.021301,241.628494 
	C710.948181,241.628494 714.339111,241.628494 717.997986,241.628494 
	C717.997986,244.000580 717.997925,245.814514 717.997925,247.628448 
	C717.997925,313.454376 718.205994,379.281647 717.786743,445.104919 
	C717.719421,455.683563 719.917053,464.354553 726.678162,472.561737 
	C734.414185,481.952545 733.966187,482.321625 744.297729,474.808472 
M622.831726,449.499939 
	C622.887512,470.995697 622.925842,492.491486 623.010742,513.987122 
	C623.033447,519.739502 624.324097,520.965271 630.086792,520.996643 
	C634.253052,521.019287 638.419495,521.002686 642.585876,521.000671 
	C650.471497,520.996887 651.000244,520.461243 651.000366,512.423645 
	C651.001465,437.429108 651.000977,362.434570 651.000977,287.440033 
	C651.000977,285.534271 651.001038,283.628510 651.001038,281.331787 
	C655.359985,281.331787 658.964172,281.331787 662.233704,281.331787 
	C653.455566,272.525421 644.718140,263.759888 636.851501,255.867950 
	C628.558411,264.175659 619.847595,272.901764 611.153992,281.610596 
	C614.520264,281.610596 618.433655,281.610596 622.831726,281.610596 
	C622.831726,337.585022 622.831726,393.042480 622.831726,449.499939 
M1196.198364,638.894592 
	C1201.898071,623.600586 1207.597900,608.306580 1213.297607,593.012512 
	C1213.812012,593.153870 1214.326416,593.295227 1214.840698,593.436646 
	C1214.917114,595.014282 1215.052002,596.591675 1215.060791,598.169739 
	C1215.149048,613.996826 1215.243042,629.824097 1215.282104,645.651367 
	C1215.318481,660.362915 1215.288574,660.243530 1229.804443,660.074951 
	C1233.813110,660.028320 1235.010010,658.497131 1234.936523,654.703186 
	C1234.694336,642.210876 1234.976196,629.702759 1234.496338,617.222290 
	C1233.997681,604.253113 1233.002075,591.295105 1231.841187,578.366638 
	C1231.628540,575.997498 1230.166870,572.927673 1228.285767,571.665955 
	C1221.213501,566.922241 1206.437134,570.744873 1202.341431,578.265625 
	C1199.243042,583.954651 1196.522583,589.882629 1194.071533,595.883118 
	C1190.453003,604.742065 1187.223022,613.759827 1183.574463,623.377380 
	C1182.870483,621.229797 1182.440430,619.684204 1181.864014,618.195129 
	C1176.819336,605.164001 1171.927979,592.068909 1166.600342,579.153992 
	C1164.357422,573.716797 1160.742798,570.004822 1153.745972,570.148926 
	C1137.916992,570.475159 1136.230469,571.255066 1135.175171,587.183472 
	C1133.832275,607.453674 1133.076538,627.771851 1132.516235,648.081726 
	C1132.124512,662.281799 1131.027710,659.543030 1144.309814,660.098206 
	C1149.294678,660.306519 1150.534424,658.478516 1150.585327,653.805542 
	C1150.786743,635.315796 1151.334961,616.829651 1151.781372,598.342773 
	C1151.821655,596.671753 1152.054321,595.005371 1152.197754,593.336792 
	C1153.911621,594.805420 1154.702271,596.247375 1155.226074,597.780457 
	C1160.770020,614.006042 1166.371948,630.213257 1171.709351,646.506958 
	C1172.937256,650.255371 1174.822754,651.965454 1178.814575,651.964783 
	C1194.720459,651.962097 1191.567261,652.406555 1195.835693,640.130676 
	C1195.890381,639.973694 1195.923584,639.809326 1196.198364,638.894592 
M236.955093,581.480713 
	C233.744217,573.292480 228.438599,569.309937 218.974564,570.088806 
	C208.301132,570.967163 205.625320,571.986084 204.896622,582.569946 
	C203.399124,604.319275 202.363266,626.110718 201.674805,647.901733 
	C201.217056,662.389893 199.954117,659.552185 213.720627,660.081482 
	C218.464981,660.263916 219.654663,658.450745 219.703201,653.999756 
	C219.904816,635.516174 220.425980,617.035950 220.857407,598.555115 
	C220.895996,596.901794 221.132553,595.252991 221.277161,593.602112 
	C223.217194,595.195679 224.059921,596.801697 224.642914,598.497009 
	C229.457977,612.498962 234.265030,626.503967 238.994431,640.535034 
	C243.116898,652.765503 240.280853,651.877197 255.146683,651.963196 
	C259.441956,651.988037 261.613953,650.266418 263.083832,646.105713 
	C268.844299,629.799927 274.998810,613.633240 281.041809,597.427856 
	C281.581299,595.981140 282.372345,594.628235 283.046539,593.231750 
	C283.964813,594.989380 284.125885,596.554382 284.135712,598.120361 
	C284.236115,614.108582 284.340454,630.096863 284.386017,646.085266 
	C284.426605,660.330688 284.393372,660.215881 298.816925,660.072083 
	C302.755096,660.032776 304.085175,658.647095 304.009277,654.777649 
	C303.761078,642.123047 304.070312,629.451599 303.579254,616.809387 
	C303.075684,603.845825 302.074371,590.890442 300.818481,577.977417 
	C300.585785,575.584778 298.633331,572.280701 296.578766,571.326904 
	C286.599030,566.693909 274.583588,570.854980 270.085419,580.807983 
	C264.544312,593.068604 259.836639,605.706116 254.785049,618.187378 
	C254.198090,619.637573 253.714767,621.129761 253.156616,622.676758 
	C247.762405,608.928406 242.510925,595.543762 236.955093,581.480713 
M594.106384,655.209412 
	C593.946533,639.218201 594.051086,623.218384 593.530029,607.238953 
	C593.205261,597.276917 591.999329,587.339783 591.060852,577.403564 
	C590.634888,572.893616 587.899963,570.653870 583.399109,570.470886 
	C567.324646,569.817383 565.128601,569.797913 558.742554,584.018616 
	C553.046997,596.701721 548.107605,609.724304 542.746887,622.811096 
	C542.302673,621.505249 541.849854,619.999084 541.283508,618.536865 
	C536.178040,605.353821 531.166077,592.132751 525.884277,579.020508 
	C523.327209,572.672668 518.708740,569.860474 511.411407,570.137390 
	C497.748322,570.655945 495.668732,571.642700 494.738129,585.372681 
	C493.330841,606.135986 492.443604,626.944946 491.846375,647.749146 
	C491.432800,662.155579 490.093750,659.608398 503.802338,660.081299 
	C508.397369,660.239807 509.843323,658.804443 509.885956,654.163940 
	C510.055908,635.676453 510.610382,617.192261 511.059418,598.707764 
	C511.102692,596.925049 511.401520,595.148438 511.581726,593.369019 
	C512.179199,593.311218 512.776733,593.253418 513.374207,593.195618 
	C518.607422,608.772400 523.863464,624.341553 529.066895,639.928223 
	C533.474548,653.131042 530.282227,651.928284 546.282227,651.906189 
	C549.934814,651.901184 551.966125,650.289368 553.102600,646.669678 
	C555.893433,637.780396 558.880737,628.941589 562.140198,620.213684 
	C565.529968,611.136780 569.332031,602.213928 572.953857,593.223694 
	C573.549255,593.319641 574.144653,593.415588 574.740051,593.511536 
	C574.740051,598.576660 574.739624,603.641846 574.740112,608.706970 
	C574.741638,623.866699 574.717651,639.026489 574.770813,654.186096 
	C574.779602,656.685547 574.055908,660.699707 578.138245,659.792969 
	C583.453796,658.612244 590.449829,664.293274 594.106384,655.209412 
M775.334961,571.932190 
	C772.069458,571.408997 768.815857,570.541748 765.536255,570.428650 
	C756.568726,570.119385 755.306519,571.432861 755.300110,580.248718 
	C755.283813,602.569763 755.222107,624.891113 755.319763,647.211731 
	C755.385437,662.237671 753.314880,659.612366 768.377747,660.121521 
	C773.360596,660.289978 774.633911,658.465393 774.576599,653.788635 
	C774.366455,636.633972 774.486267,619.475220 774.505127,602.317993 
	C774.506958,600.620483 774.667908,598.923035 774.755066,597.225586 
	C781.407349,606.432983 786.715454,615.988159 792.561768,625.201965 
	C798.524597,634.599365 804.809204,643.811768 811.353394,652.814148 
	C815.335144,658.291565 821.222961,660.294739 828.045776,660.080750 
	C835.679077,659.841370 836.255066,659.500916 836.262146,651.784851 
	C836.282593,629.630371 835.900696,607.466553 836.459900,585.326233 
	C836.669983,577.010498 832.088318,572.669312 826.952820,568.019714 
	C819.066284,573.496826 817.091064,577.178711 817.066223,585.882385 
	C817.028198,599.208191 816.958252,612.533875 816.903748,625.859619 
	C816.897339,627.426147 816.902893,628.992676 816.902893,630.559204 
	C816.477722,630.659180 816.052612,630.759094 815.627441,630.859070 
	C813.712402,627.830322 811.730713,624.841370 809.894043,621.765808 
	C802.722900,609.757446 795.906494,597.521729 788.311157,585.789429 
	C785.036804,580.731628 780.185486,576.694641 775.334961,571.932190 
M362.137878,585.665649 
	C356.252808,594.827576 354.537598,605.099060 354.364380,615.710144 
	C353.902771,643.984436 368.518890,660.115967 395.708710,661.496460 
	C416.961670,662.575562 433.049164,652.500610 438.430176,634.318604 
	C442.091888,621.945862 442.377441,609.368042 438.906677,596.862488 
	C436.667755,588.795288 432.392090,581.993225 425.687683,576.788940 
	C410.454315,564.964233 375.696869,565.266174 362.137878,585.665649 
M1058.088013,582.844849 
	C1058.083740,596.332275 1058.188965,609.821228 1058.007324,623.306274 
	C1057.953979,627.261841 1057.633423,631.386353 1056.412964,635.097107 
	C1055.497437,637.880432 1053.474365,641.042786 1051.030640,642.453979 
	C1039.173584,649.300598 1026.642578,643.061890 1024.756714,629.697388 
	C1024.363281,626.908630 1024.240234,624.062744 1024.228394,621.242249 
	C1024.174072,608.254578 1024.083740,595.265015 1024.251831,582.279236 
	C1024.338501,575.577332 1019.232727,572.595581 1015.300598,568.722473 
	C1014.943787,568.370972 1014.036621,568.335510 1013.469238,568.481201 
	C1010.591309,569.220154 1004.064453,577.998901 1004.062866,581.245361 
	C1004.054749,597.729736 1003.822876,614.220764 1004.210449,630.696716 
	C1004.653809,649.545105 1014.302124,659.492432 1033.089600,660.980835 
	C1038.210083,661.386475 1043.416992,661.410522 1048.535889,661.003113 
	C1067.662720,659.481079 1077.798340,648.792236 1078.149048,629.531921 
	C1078.439819,613.551941 1078.275146,597.563293 1078.269409,581.578491 
	C1078.268066,578.014954 1072.463623,569.790222 1069.192139,568.613647 
	C1068.633057,568.412598 1067.672852,568.274658 1067.368042,568.578857 
	C1063.472656,572.464050 1058.026367,575.307312 1058.088013,582.844849 
M886.629272,583.993774 
	C889.321289,584.958191 891.960754,586.513916 894.716736,586.758789 
	C899.781250,587.208862 904.914246,586.887146 910.370728,586.887146 
	C910.370728,607.136108 910.352112,626.603271 910.376953,646.070435 
	C910.394836,660.053955 910.420715,660.053833 924.299927,660.003052 
	C930.478699,659.980408 930.738220,659.743774 930.751892,653.518982 
	C930.796509,633.203430 930.822510,612.887878 930.854980,592.572327 
	C930.857788,590.813232 930.855347,589.054077 930.855347,586.904114 
	C936.491699,586.904114 941.484680,586.606262 946.426453,586.982056 
	C952.158630,587.418030 955.140137,583.553284 958.404114,580.087097 
	C958.928406,579.530518 958.919312,577.606934 958.389404,577.063660 
	C955.078552,573.669067 952.149841,570.044983 946.397278,570.160400 
	C929.918274,570.491211 913.416138,570.649231 896.948425,570.106079 
	C889.678955,569.866272 885.570129,573.351440 880.587463,580.086914 
	C882.361694,581.192261 884.216614,582.347900 886.629272,583.993774 
M650.605835,593.007080 
	C668.246521,593.006775 685.890259,593.184631 703.525513,592.875244 
	C707.697632,592.802124 712.172363,591.775574 715.913147,589.961365 
	C720.508484,587.732666 720.505005,582.467957 715.963867,580.103760 
	C712.559937,578.331482 708.429626,577.188416 704.601074,577.127563 
	C685.966614,576.831482 667.323914,576.901245 648.686523,577.082458 
	C645.441956,577.113953 641.897827,577.696899 639.071411,579.151184 
	C636.931213,580.252258 634.561340,583.080566 634.438293,585.261292 
	C634.334229,587.104980 636.940491,589.983704 639.004578,590.865173 
	C642.262024,592.256348 646.070007,592.358154 650.605835,593.007080 
M660.501282,608.989685 
	C656.507996,608.991760 652.496643,608.761414 648.527283,609.070496 
	C645.419800,609.312500 642.065247,609.640076 639.379456,611.018677 
	C637.185852,612.144836 634.309875,615.011047 634.470764,616.869141 
	C634.666992,619.137085 637.359985,621.771179 639.640442,623.113159 
	C641.935669,624.463806 645.046143,624.896301 647.805298,624.916260 
	C667.104919,625.055847 686.406982,625.077942 705.705750,624.883667 
	C708.769531,624.852844 712.090820,624.059631 714.785217,622.649048 
	C716.674194,621.660034 718.773865,619.041138 718.807800,617.115356 
	C718.841492,615.202576 716.810364,612.273560 714.973083,611.516052 
	C711.387817,610.037781 707.317688,609.172241 703.428040,609.096802 
	C689.456848,608.825745 675.477173,608.989929 660.501282,608.989685 
M719.038269,650.150085 
	C717.568726,647.801514 716.616882,644.583984 714.499634,643.322571 
	C711.806641,641.718323 708.175598,641.123779 704.938660,641.090576 
	C686.116516,640.897156 667.290588,640.912537 648.467896,641.079895 
	C645.381714,641.107300 641.999939,641.650879 639.319885,643.043335 
	C637.136414,644.177856 634.473694,646.928650 634.458130,648.981140 
	C634.442627,651.023621 637.126953,653.598145 639.249084,654.995056 
	C641.205383,656.283081 643.983704,656.809692 646.405762,656.826233 
	C666.559692,656.964050 686.716309,657.030457 706.868896,656.813904 
	C711.526367,656.763794 716.210571,655.621887 719.038269,650.150085 
M60.054398,618.500183 
	C60.054398,615.672180 60.095428,612.843506 60.047646,610.016296 
	C59.767265,593.428406 62.616199,596.329956 45.733490,595.906433 
	C41.702351,595.805298 40.053543,597.118958 40.087841,601.317261 
	C40.233246,619.115845 40.208370,636.916626 40.102074,654.715698 
	C40.079662,658.467896 41.231674,660.331848 45.268036,660.030884 
	C48.411274,659.796570 51.603821,659.771179 54.742294,660.035217 
	C59.058216,660.398315 60.168098,658.386536 60.112453,654.433289 
	C59.948574,642.790894 60.054241,631.144714 60.054398,618.500183 
M552.964172,301.009521 
	C546.813354,301.009918 540.661865,300.955994 534.511963,301.029572 
	C530.326843,301.079651 528.016479,303.198883 528.007935,307.509338 
	C527.994385,314.325104 527.935181,321.141937 528.030579,327.956390 
	C528.085693,331.895264 529.986084,334.096161 534.217285,334.027130 
	C540.366516,333.926819 546.519775,333.927246 552.669006,334.026581 
	C557.072693,334.097717 559.062744,332.057343 559.018738,327.697449 
	C558.951599,321.048523 558.909363,314.396698 559.036804,307.749542 
	C559.108948,303.985504 557.567139,301.751556 552.964172,301.009521 
M113.196999,627.327393 
	C112.357452,632.233582 114.517250,633.710510 119.282936,633.407776 
	C125.256165,633.028320 131.273544,633.409424 137.268738,633.296387 
	C149.090073,633.073547 147.488586,635.770935 147.634827,622.037354 
	C147.664597,619.243469 146.361710,618.170776 143.680923,618.184814 
	C134.851791,618.231018 126.021729,618.257507 117.193161,618.172729 
	C114.136337,618.143433 112.965683,619.507446 113.181450,622.433289 
	C113.279205,623.758850 113.197380,625.097534 113.196999,627.327393 
M38.399895,577.150940 
	C39.064133,577.892578 39.714531,578.647156 40.394646,579.373962 
	C50.137089,589.783752 50.038658,589.686218 60.059986,579.372192 
	C63.112003,576.231079 63.579941,573.983032 60.202282,570.781189 
	C48.722485,559.898987 51.881702,559.289185 40.028755,571.169739 
	C38.784573,572.416809 38.637817,574.758789 38.399895,577.150940 
z"/>
<path fill="#FEFEFE" opacity="1.000000" stroke="none" 
	d="
M743.996338,475.006104 
	C733.966187,482.321625 734.414185,481.952545 726.678162,472.561737 
	C719.917053,464.354553 717.719421,455.683563 717.786743,445.104919 
	C718.205994,379.281647 717.997925,313.454376 717.997925,247.628448 
	C717.997925,245.814514 717.997986,244.000580 717.997986,241.628494 
	C714.339111,241.628494 710.948181,241.628494 708.021301,241.628494 
	C716.798889,232.839218 725.519958,224.106522 733.805664,215.809784 
	C741.706848,223.779587 750.419617,232.568039 759.231628,241.456543 
	C755.629822,241.456543 751.703674,241.456543 747.477417,241.456543 
	C747.477417,306.724304 747.477417,371.486389 747.477417,436.658783 
	C748.463562,436.163330 749.489807,435.811035 750.329834,435.201904 
	C774.999939,417.314392 799.677917,399.437256 824.238037,381.399628 
	C825.660095,380.355225 826.880859,377.976013 826.884827,376.215027 
	C827.020569,316.055420 826.974854,255.895432 827.071350,195.735672 
	C827.075806,192.973282 826.106384,191.643295 823.836426,190.336090 
	C763.718811,155.715500 703.632080,121.041122 643.591797,86.286781 
	C640.896179,84.726479 638.969849,84.909622 636.374084,86.473236 
	C578.364563,121.416550 520.311279,156.287384 462.212250,191.081528 
	C459.722412,192.572632 458.939514,194.206421 458.943329,197.018387 
	C459.021606,254.678467 458.986572,312.338715 459.075500,369.998749 
	C459.078247,371.775513 459.620605,374.169861 460.829163,375.234528 
	C482.814575,394.602692 504.940887,413.810913 527.662476,433.597656 
	C527.806824,431.513306 527.984558,430.133942 527.985657,428.754486 
	C528.003296,407.423553 527.990112,386.092621 528.002319,364.761688 
	C528.006409,357.512604 529.504456,356.029480 536.784424,356.002014 
	C541.950439,355.982483 547.116821,355.968170 552.282593,356.011841 
	C556.667236,356.048920 559.040283,357.996033 559.031677,362.705902 
	C558.972473,395.035461 559.065796,427.365631 558.872009,459.694153 
	C558.856689,462.253815 557.481995,465.110107 555.962769,467.286713 
	C553.497009,470.819275 550.418945,473.930206 547.543762,477.169830 
	C543.709229,481.490295 541.926392,481.631927 537.575500,477.853760 
	C519.334229,462.014008 501.118011,446.145416 482.892151,430.287933 
	C466.928650,416.398743 451.016113,402.450195 434.959320,388.669769 
	C431.537781,385.733307 429.910889,382.567322 429.919434,377.940338 
	C430.036102,314.780975 430.035034,251.621292 429.925476,188.461899 
	C429.916992,183.565140 431.615082,180.402420 435.803436,177.891403 
	C502.306030,138.021515 568.766968,98.082085 635.181580,58.065796 
	C638.432434,56.107082 640.967712,55.972782 644.306335,57.905449 
	C711.977417,97.078972 779.701477,136.160965 847.448059,175.203949 
	C850.575012,177.006042 852.329407,178.995041 851.094666,182.805405 
	C850.702698,184.014877 851.003418,185.451981 851.003418,186.784912 
	C851.001831,253.777390 851.001953,320.769867 851.002991,387.762329 
	C851.002991,388.928741 850.711792,390.201935 851.076782,391.242950 
	C852.622742,395.652985 850.179016,397.922546 846.967102,400.245392 
	C817.552490,421.518463 788.202087,442.880249 758.834656,464.218658 
	C753.984680,467.742615 749.143188,471.278259 743.996338,475.006104 
z"/>
<path fill="#FEFEFF" opacity="1.000000" stroke="none" 
	d="
M622.831726,448.999939 
	C622.831726,393.042480 622.831726,337.585022 622.831726,281.610596 
	C618.433655,281.610596 614.520264,281.610596 611.153992,281.610596 
	C619.847595,272.901764 628.558411,264.175659 636.851501,255.867950 
	C644.718140,263.759888 653.455566,272.525421 662.233704,281.331787 
	C658.964172,281.331787 655.359985,281.331787 651.001038,281.331787 
	C651.001038,283.628510 651.000977,285.534271 651.000977,287.440033 
	C651.000977,362.434570 651.001465,437.429108 651.000366,512.423645 
	C651.000244,520.461243 650.471497,520.996887 642.585876,521.000671 
	C638.419495,521.002686 634.253052,521.019287 630.086792,520.996643 
	C624.324097,520.965271 623.033447,519.739502 623.010742,513.987122 
	C622.925842,492.491486 622.887512,470.995697 622.831726,448.999939 
z"/>
<path fill="#FAFBFC" opacity="1.000000" stroke="none" 
	d="
M1196.082520,639.271484 
	C1195.923584,639.809326 1195.890381,639.973694 1195.835693,640.130676 
	C1191.567261,652.406555 1194.720459,651.962097 1178.814575,651.964783 
	C1174.822754,651.965454 1172.937256,650.255371 1171.709351,646.506958 
	C1166.371948,630.213257 1160.770020,614.006042 1155.226074,597.780457 
	C1154.702271,596.247375 1153.911621,594.805420 1152.197754,593.336792 
	C1152.054321,595.005371 1151.821655,596.671753 1151.781372,598.342773 
	C1151.334961,616.829651 1150.786743,635.315796 1150.585327,653.805542 
	C1150.534424,658.478516 1149.294678,660.306519 1144.309814,660.098206 
	C1131.027710,659.543030 1132.124512,662.281799 1132.516235,648.081726 
	C1133.076538,627.771851 1133.832275,607.453674 1135.175171,587.183472 
	C1136.230469,571.255066 1137.916992,570.475159 1153.745972,570.148926 
	C1160.742798,570.004822 1164.357422,573.716797 1166.600342,579.153992 
	C1171.927979,592.068909 1176.819336,605.164001 1181.864014,618.195129 
	C1182.440430,619.684204 1182.870483,621.229797 1183.574463,623.377380 
	C1187.223022,613.759827 1190.453003,604.742065 1194.071533,595.883118 
	C1196.522583,589.882629 1199.243042,583.954651 1202.341431,578.265625 
	C1206.437134,570.744873 1221.213501,566.922241 1228.285767,571.665955 
	C1230.166870,572.927673 1231.628540,575.997498 1231.841187,578.366638 
	C1233.002075,591.295105 1233.997681,604.253113 1234.496338,617.222290 
	C1234.976196,629.702759 1234.694336,642.210876 1234.936523,654.703186 
	C1235.010010,658.497131 1233.813110,660.028320 1229.804443,660.074951 
	C1215.288574,660.243530 1215.318481,660.362915 1215.282104,645.651367 
	C1215.243042,629.824097 1215.149048,613.996826 1215.060791,598.169739 
	C1215.052002,596.591675 1214.917114,595.014282 1214.840698,593.436646 
	C1214.326416,593.295227 1213.812012,593.153870 1213.297607,593.012512 
	C1207.597900,608.306580 1201.898071,623.600586 1196.082520,639.271484 
z"/>
<path fill="#FAFBFC" opacity="1.000000" stroke="none" 
	d="
M237.107269,581.819946 
	C242.510925,595.543762 247.762405,608.928406 253.156616,622.676758 
	C253.714767,621.129761 254.198090,619.637573 254.785049,618.187378 
	C259.836639,605.706116 264.544312,593.068604 270.085419,580.807983 
	C274.583588,570.854980 286.599030,566.693909 296.578766,571.326904 
	C298.633331,572.280701 300.585785,575.584778 300.818481,577.977417 
	C302.074371,590.890442 303.075684,603.845825 303.579254,616.809387 
	C304.070312,629.451599 303.761078,642.123047 304.009277,654.777649 
	C304.085175,658.647095 302.755096,660.032776 298.816925,660.072083 
	C284.393372,660.215881 284.426605,660.330688 284.386017,646.085266 
	C284.340454,630.096863 284.236115,614.108582 284.135712,598.120361 
	C284.125885,596.554382 283.964813,594.989380 283.046539,593.231750 
	C282.372345,594.628235 281.581299,595.981140 281.041809,597.427856 
	C274.998810,613.633240 268.844299,629.799927 263.083832,646.105713 
	C261.613953,650.266418 259.441956,651.988037 255.146683,651.963196 
	C240.280853,651.877197 243.116898,652.765503 238.994431,640.535034 
	C234.265030,626.503967 229.457977,612.498962 224.642914,598.497009 
	C224.059921,596.801697 223.217194,595.195679 221.277161,593.602112 
	C221.132553,595.252991 220.895996,596.901794 220.857407,598.555115 
	C220.425980,617.035950 219.904816,635.516174 219.703201,653.999756 
	C219.654663,658.450745 218.464981,660.263916 213.720627,660.081482 
	C199.954117,659.552185 201.217056,662.389893 201.674805,647.901733 
	C202.363266,626.110718 203.399124,604.319275 204.896622,582.569946 
	C205.625320,571.986084 208.301132,570.967163 218.974564,570.088806 
	C228.438599,569.309937 233.744217,573.292480 237.107269,581.819946 
z"/>
<path fill="#FBFCFC" opacity="1.000000" stroke="none" 
	d="
M594.104004,655.678955 
	C590.449829,664.293274 583.453796,658.612244 578.138245,659.792969 
	C574.055908,660.699707 574.779602,656.685547 574.770813,654.186096 
	C574.717651,639.026489 574.741638,623.866699 574.740112,608.706970 
	C574.739624,603.641846 574.740051,598.576660 574.740051,593.511536 
	C574.144653,593.415588 573.549255,593.319641 572.953857,593.223694 
	C569.332031,602.213928 565.529968,611.136780 562.140198,620.213684 
	C558.880737,628.941589 555.893433,637.780396 553.102600,646.669678 
	C551.966125,650.289368 549.934814,651.901184 546.282227,651.906189 
	C530.282227,651.928284 533.474548,653.131042 529.066895,639.928223 
	C523.863464,624.341553 518.607422,608.772400 513.374207,593.195618 
	C512.776733,593.253418 512.179199,593.311218 511.581726,593.369019 
	C511.401520,595.148438 511.102692,596.925049 511.059418,598.707764 
	C510.610382,617.192261 510.055908,635.676453 509.885956,654.163940 
	C509.843323,658.804443 508.397369,660.239807 503.802338,660.081299 
	C490.093750,659.608398 491.432800,662.155579 491.846375,647.749146 
	C492.443604,626.944946 493.330841,606.135986 494.738129,585.372681 
	C495.668732,571.642700 497.748322,570.655945 511.411407,570.137390 
	C518.708740,569.860474 523.327209,572.672668 525.884277,579.020508 
	C531.166077,592.132751 536.178040,605.353821 541.283508,618.536865 
	C541.849854,619.999084 542.302673,621.505249 542.746887,622.811096 
	C548.107605,609.724304 553.046997,596.701721 558.742554,584.018616 
	C565.128601,569.797913 567.324646,569.817383 583.399109,570.470886 
	C587.899963,570.653870 590.634888,572.893616 591.060852,577.403564 
	C591.999329,587.339783 593.205261,597.276917 593.530029,607.238953 
	C594.051086,623.218384 593.946533,639.218201 594.104004,655.678955 
z"/>
<path fill="#FBFBFC" opacity="1.000000" stroke="none" 
	d="
M775.692749,572.063049 
	C780.185486,576.694641 785.036804,580.731628 788.311157,585.789429 
	C795.906494,597.521729 802.722900,609.757446 809.894043,621.765808 
	C811.730713,624.841370 813.712402,627.830322 815.627441,630.859070 
	C816.052612,630.759094 816.477722,630.659180 816.902893,630.559204 
	C816.902893,628.992676 816.897339,627.426147 816.903748,625.859619 
	C816.958252,612.533875 817.028198,599.208191 817.066223,585.882385 
	C817.091064,577.178711 819.066284,573.496826 826.952820,568.019714 
	C832.088318,572.669312 836.669983,577.010498 836.459900,585.326233 
	C835.900696,607.466553 836.282593,629.630371 836.262146,651.784851 
	C836.255066,659.500916 835.679077,659.841370 828.045776,660.080750 
	C821.222961,660.294739 815.335144,658.291565 811.353394,652.814148 
	C804.809204,643.811768 798.524597,634.599365 792.561768,625.201965 
	C786.715454,615.988159 781.407349,606.432983 774.755066,597.225586 
	C774.667908,598.923035 774.506958,600.620483 774.505127,602.317993 
	C774.486267,619.475220 774.366455,636.633972 774.576599,653.788635 
	C774.633911,658.465393 773.360596,660.289978 768.377747,660.121521 
	C753.314880,659.612366 755.385437,662.237671 755.319763,647.211731 
	C755.222107,624.891113 755.283813,602.569763 755.300110,580.248718 
	C755.306519,571.432861 756.568726,570.119385 765.536255,570.428650 
	C768.815857,570.541748 772.069458,571.408997 775.692749,572.063049 
z"/>
<path fill="#FBFCFD" opacity="1.000000" stroke="none" 
	d="
M362.325745,585.357910 
	C375.696869,565.266174 410.454315,564.964233 425.687683,576.788940 
	C432.392090,581.993225 436.667755,588.795288 438.906677,596.862488 
	C442.377441,609.368042 442.091888,621.945862 438.430176,634.318604 
	C433.049164,652.500610 416.961670,662.575562 395.708710,661.496460 
	C368.518890,660.115967 353.902771,643.984436 354.364380,615.710144 
	C354.537598,605.099060 356.252808,594.827576 362.325745,585.357910 
M386.491669,588.804626 
	C383.931580,591.774353 380.363251,594.343628 378.995605,597.786987 
	C374.413849,609.322632 374.235321,621.222046 379.135376,632.778870 
	C382.619080,640.995239 389.728088,644.999939 398.722168,644.571899 
	C407.816162,644.139099 414.058563,639.728333 417.256042,631.145020 
	C420.246185,623.118225 420.290833,614.848755 419.196594,606.504639 
	C416.831818,588.471680 403.856262,581.153748 386.491669,588.804626 
z"/>
<path fill="#FCFCFD" opacity="1.000000" stroke="none" 
	d="
M1058.088013,582.392334 
	C1058.026367,575.307312 1063.472656,572.464050 1067.368042,568.578857 
	C1067.672852,568.274658 1068.633057,568.412598 1069.192139,568.613647 
	C1072.463623,569.790222 1078.268066,578.014954 1078.269409,581.578491 
	C1078.275146,597.563293 1078.439819,613.551941 1078.149048,629.531921 
	C1077.798340,648.792236 1067.662720,659.481079 1048.535889,661.003113 
	C1043.416992,661.410522 1038.210083,661.386475 1033.089600,660.980835 
	C1014.302124,659.492432 1004.653809,649.545105 1004.210449,630.696716 
	C1003.822876,614.220764 1004.054749,597.729736 1004.062866,581.245361 
	C1004.064453,577.998901 1010.591309,569.220154 1013.469238,568.481201 
	C1014.036621,568.335510 1014.943787,568.370972 1015.300598,568.722473 
	C1019.232727,572.595581 1024.338501,575.577332 1024.251831,582.279236 
	C1024.083740,595.265015 1024.174072,608.254578 1024.228394,621.242249 
	C1024.240234,624.062744 1024.363281,626.908630 1024.756714,629.697388 
	C1026.642578,643.061890 1039.173584,649.300598 1051.030640,642.453979 
	C1053.474365,641.042786 1055.497437,637.880432 1056.412964,635.097107 
	C1057.633423,631.386353 1057.953979,627.261841 1058.007324,623.306274 
	C1058.188965,609.821228 1058.083740,596.332275 1058.088013,582.392334 
z"/>
<path fill="#F7F9FA" opacity="1.000000" stroke="none" 
	d="
M886.350464,583.748657 
	C884.216614,582.347900 882.361694,581.192261 880.587463,580.086914 
	C885.570129,573.351440 889.678955,569.866272 896.948425,570.106079 
	C913.416138,570.649231 929.918274,570.491211 946.397278,570.160400 
	C952.149841,570.044983 955.078552,573.669067 958.389404,577.063660 
	C958.919312,577.606934 958.928406,579.530518 958.404114,580.087097 
	C955.140137,583.553284 952.158630,587.418030 946.426453,586.982056 
	C941.484680,586.606262 936.491699,586.904114 930.855347,586.904114 
	C930.855347,589.054077 930.857788,590.813232 930.854980,592.572327 
	C930.822510,612.887878 930.796509,633.203430 930.751892,653.518982 
	C930.738220,659.743774 930.478699,659.980408 924.299927,660.003052 
	C910.420715,660.053833 910.394836,660.053955 910.376953,646.070435 
	C910.352112,626.603271 910.370728,607.136108 910.370728,586.887146 
	C904.914246,586.887146 899.781250,587.208862 894.716736,586.758789 
	C891.960754,586.513916 889.321289,584.958191 886.350464,583.748657 
z"/>
<path fill="#FBFCFD" opacity="1.000000" stroke="none" 
	d="
M650.125366,593.006409 
	C646.070007,592.358154 642.262024,592.256348 639.004578,590.865173 
	C636.940491,589.983704 634.334229,587.104980 634.438293,585.261292 
	C634.561340,583.080566 636.931213,580.252258 639.071411,579.151184 
	C641.897827,577.696899 645.441956,577.113953 648.686523,577.082458 
	C667.323914,576.901245 685.966614,576.831482 704.601074,577.127563 
	C708.429626,577.188416 712.559937,578.331482 715.963867,580.103760 
	C720.505005,582.467957 720.508484,587.732666 715.913147,589.961365 
	C712.172363,591.775574 707.697632,592.802124 703.525513,592.875244 
	C685.890259,593.184631 668.246521,593.006775 650.125366,593.006409 
z"/>
<path fill="#FBFCFD" opacity="1.000000" stroke="none" 
	d="
M661.000977,608.989685 
	C675.477173,608.989929 689.456848,608.825745 703.428040,609.096802 
	C707.317688,609.172241 711.387817,610.037781 714.973083,611.516052 
	C716.810364,612.273560 718.841492,615.202576 718.807800,617.115356 
	C718.773865,619.041138 716.674194,621.660034 714.785217,622.649048 
	C712.090820,624.059631 708.769531,624.852844 705.705750,624.883667 
	C686.406982,625.077942 667.104919,625.055847 647.805298,624.916260 
	C645.046143,624.896301 641.935669,624.463806 639.640442,623.113159 
	C637.359985,621.771179 634.666992,619.137085 634.470764,616.869141 
	C634.309875,615.011047 637.185852,612.144836 639.379456,611.018677 
	C642.065247,609.640076 645.419800,609.312500 648.527283,609.070496 
	C652.496643,608.761414 656.507996,608.991760 661.000977,608.989685 
z"/>
<path fill="#FBFCFD" opacity="1.000000" stroke="none" 
	d="
M718.937317,650.526978 
	C716.210571,655.621887 711.526367,656.763794 706.868896,656.813904 
	C686.716309,657.030457 666.559692,656.964050 646.405762,656.826233 
	C643.983704,656.809692 641.205383,656.283081 639.249084,654.995056 
	C637.126953,653.598145 634.442627,651.023621 634.458130,648.981140 
	C634.473694,646.928650 637.136414,644.177856 639.319885,643.043335 
	C641.999939,641.650879 645.381714,641.107300 648.467896,641.079895 
	C667.290588,640.912537 686.116516,640.897156 704.938660,641.090576 
	C708.175598,641.123779 711.806641,641.718323 714.499634,643.322571 
	C716.616882,644.583984 717.568726,647.801514 718.937317,650.526978 
z"/>
<path fill="#FAFBFC" opacity="1.000000" stroke="none" 
	d="
M60.054398,619.000122 
	C60.054241,631.144714 59.948574,642.790894 60.112453,654.433289 
	C60.168098,658.386536 59.058216,660.398315 54.742294,660.035217 
	C51.603821,659.771179 48.411274,659.796570 45.268036,660.030884 
	C41.231674,660.331848 40.079662,658.467896 40.102074,654.715698 
	C40.208370,636.916626 40.233246,619.115845 40.087841,601.317261 
	C40.053543,597.118958 41.702351,595.805298 45.733490,595.906433 
	C62.616199,596.329956 59.767265,593.428406 60.047646,610.016296 
	C60.095428,612.843506 60.054398,615.672180 60.054398,619.000122 
z"/>
<path fill="#FEFEFE" opacity="1.000000" stroke="none" 
	d="
M553.405640,301.040039 
	C557.567139,301.751556 559.108948,303.985504 559.036804,307.749542 
	C558.909363,314.396698 558.951599,321.048523 559.018738,327.697449 
	C559.062744,332.057343 557.072693,334.097717 552.669006,334.026581 
	C546.519775,333.927246 540.366516,333.926819 534.217285,334.027130 
	C529.986084,334.096161 528.085693,331.895264 528.030579,327.956390 
	C527.935181,321.141937 527.994385,314.325104 528.007935,307.509338 
	C528.016479,303.198883 530.326843,301.079651 534.511963,301.029572 
	C540.661865,300.955994 546.813354,301.009918 553.405640,301.040039 
z"/>
<path fill="#F6F8F9" opacity="1.000000" stroke="none" 
	d="
M113.197014,626.878845 
	C113.197380,625.097534 113.279205,623.758850 113.181450,622.433289 
	C112.965683,619.507446 114.136337,618.143433 117.193161,618.172729 
	C126.021729,618.257507 134.851791,618.231018 143.680923,618.184814 
	C146.361710,618.170776 147.664597,619.243469 147.634827,622.037354 
	C147.488586,635.770935 149.090073,633.073547 137.268738,633.296387 
	C131.273544,633.409424 125.256165,633.028320 119.282936,633.407776 
	C114.517250,633.710510 112.357452,632.233582 113.197014,626.878845 
z"/>
<path fill="#F7F8FA" opacity="1.000000" stroke="none" 
	d="
M38.190903,576.871826 
	C38.637817,574.758789 38.784573,572.416809 40.028755,571.169739 
	C51.881702,559.289185 48.722485,559.898987 60.202282,570.781189 
	C63.579941,573.983032 63.112003,576.231079 60.059986,579.372192 
	C50.038658,589.686218 50.137089,589.783752 40.394646,579.373962 
	C39.714531,578.647156 39.064133,577.892578 38.190903,576.871826 
z"/>
<path fill="#22507B" opacity="1.000000" stroke="none" 
	d="
M386.808105,588.597168 
	C403.856262,581.153748 416.831818,588.471680 419.196594,606.504639 
	C420.290833,614.848755 420.246185,623.118225 417.256042,631.145020 
	C414.058563,639.728333 407.816162,644.139099 398.722168,644.571899 
	C389.728088,644.999939 382.619080,640.995239 379.135376,632.778870 
	C374.235321,621.222046 374.413849,609.322632 378.995605,597.786987 
	C380.363251,594.343628 383.931580,591.774353 386.808105,588.597168 
z"/>
</svg>