<svg version="1.1" id="Layer_1" xmlns="http://www.w3.org/2000/svg" xmlns:xlink="http://www.w3.org/1999/xlink" x="0px" y="0px"
	 width="100%" viewBox="0 0 1200 1200" enable-background="new 0 0 1200 1200" xml:space="preserve">
<path fill="#98C0B4" opacity="1.000000" stroke="none" 
	d="
M1201.000000,420.000000 
	C1201.000000,680.666687 1201.000000,940.833313 1201.000000,1201.000000 
	C801.000000,1201.000000 401.000000,1201.000000 1.000000,1201.000000 
	C1.000000,801.000000 1.000000,401.000000 1.000000,1.000000 
	C401.000000,1.000000 801.000000,1.000000 1201.000000,1.000000 
	C1201.000000,140.500000 1201.000000,280.000000 1201.000000,420.000000 
M305.021362,1104.493164 
	C360.851318,1130.416016 419.248901,1146.451172 480.758362,1151.302734 
	C512.948792,1153.841797 545.004150,1153.334229 577.007507,1149.787476 
	C616.563599,1145.403931 655.091736,1136.306763 692.485596,1122.638062 
	C745.378723,1103.303711 793.757324,1075.985840 837.397034,1040.320312 
	C842.774597,1035.925415 848.015930,1030.934204 854.168396,1027.993652 
	C876.991943,1017.085693 900.910828,1008.283264 923.085754,996.237061 
	C1013.822144,946.945557 1082.893921,875.900146 1130.114136,784.152588 
	C1173.924438,699.030273 1191.726074,608.428162 1184.169067,512.887939 
	C1180.707642,469.125885 1171.730713,426.563873 1156.941406,385.259857 
	C1122.626465,289.424103 1064.942383,210.549332 983.468201,149.597656 
	C899.532349,86.804329 804.622437,53.915150 700.000732,49.265987 
	C663.109863,47.626640 626.408142,50.496449 590.104187,57.319721 
	C500.689606,74.125053 421.296570,111.982452 352.114349,171.160568 
	C350.131653,172.856552 347.791260,174.372162 345.358521,175.268936 
	C300.636078,191.754898 259.311707,214.501144 221.056854,242.835587 
	C210.784912,250.443787 200.998291,258.707214 190.605667,266.974701 
	C192.487198,268.980896 193.675659,270.319702 194.938782,271.583893 
	C207.896851,284.552948 220.799591,297.578674 233.891296,310.411560 
	C236.479446,312.948547 236.615799,314.828430 235.119965,318.117554 
	C225.608643,339.031586 216.412079,360.088715 207.093689,381.090668 
	C206.717072,381.939484 206.158752,382.707642 205.076691,384.548309 
	C183.147659,362.412506 161.631500,340.693481 139.455246,318.308136 
	C47.164497,428.344421 5.440949,554.020691 18.305946,696.563599 
	C27.932716,803.227295 69.146751,896.968994 139.759308,978.987488 
	C183.909988,934.734131 227.166519,891.377014 270.788483,847.653564 
	C272.360168,849.624146 273.553253,851.172119 274.800201,852.675476 
	C287.346313,867.800537 299.827667,882.980347 312.495667,898.002625 
	C316.645020,902.923157 316.884735,902.748901 312.246826,907.381348 
	C273.216187,946.366760 234.177292,985.343933 195.153564,1024.336304 
	C193.682541,1025.806030 192.341293,1027.405762 190.786270,1029.113281 
	C225.508728,1059.650146 263.357178,1084.277832 305.021362,1104.493164 
z"/>
<path fill="#F4ECDC" opacity="1.000000" stroke="none" 
	d="
M304.686127,1104.324707 
	C263.357178,1084.277832 225.508728,1059.650146 190.786270,1029.113281 
	C192.341293,1027.405762 193.682541,1025.806030 195.153564,1024.336304 
	C234.177292,985.343933 273.216187,946.366760 312.246826,907.381348 
	C316.884735,902.748901 316.645020,902.923157 312.495667,898.002625 
	C299.827667,882.980347 287.346313,867.800537 274.800201,852.675476 
	C273.553253,851.172119 272.360168,849.624146 270.788483,847.653564 
	C227.166519,891.377014 183.909988,934.734131 139.759308,978.987488 
	C69.146751,896.968994 27.932716,803.227295 18.305946,696.563599 
	C5.440949,554.020691 47.164497,428.344421 139.455246,318.308136 
	C161.631500,340.693481 183.147659,362.412506 205.076691,384.548309 
	C206.158752,382.707642 206.717072,381.939484 207.093689,381.090668 
	C216.412079,360.088715 225.608643,339.031586 235.119965,318.117554 
	C236.615799,314.828430 236.479446,312.948547 233.891296,310.411560 
	C220.799591,297.578674 207.896851,284.552948 194.938782,271.583893 
	C193.675659,270.319702 192.487198,268.980896 190.605667,266.974701 
	C200.998291,258.707214 210.784912,250.443787 221.056854,242.835587 
	C259.311707,214.501144 300.636078,191.754898 345.358521,175.268936 
	C347.791260,174.372162 350.131653,172.856552 352.114349,171.160568 
	C421.296570,111.982452 500.689606,74.125053 590.104187,57.319721 
	C626.408142,50.496449 663.109863,47.626640 700.000732,49.265987 
	C804.622437,53.915150 899.532349,86.804329 983.468201,149.597656 
	C1064.942383,210.549332 1122.626465,289.424103 1156.941406,385.259857 
	C1171.730713,426.563873 1180.707642,469.125885 1184.169067,512.887939 
	C1191.726074,608.428162 1173.924438,699.030273 1130.114136,784.152588 
	C1082.893921,875.900146 1013.822144,946.945557 923.085754,996.237061 
	C900.910828,1008.283264 876.991943,1017.085693 854.168396,1027.993652 
	C848.015930,1030.934204 842.774597,1035.925415 837.397034,1040.320312 
	C793.757324,1075.985840 745.378723,1103.303711 692.485596,1122.638062 
	C655.091736,1136.306763 616.563599,1145.403931 577.007507,1149.787476 
	C545.004150,1153.334229 512.948792,1153.841797 480.758362,1151.302734 
	C419.248901,1146.451172 360.851318,1130.416016 304.686127,1104.324707 
M387.991486,152.480286 
	C382.535675,156.637619 377.079865,160.794968 371.624054,164.952301 
	C371.808655,165.323654 371.993286,165.695007 372.177887,166.066360 
	C455.291351,140.936249 539.392578,136.704102 624.303589,154.625717 
	C709.271667,172.559402 784.469177,210.290344 849.068787,266.268463 
	C781.030151,335.155121 713.506653,403.520294 645.842529,472.027771 
	C643.782104,470.712006 642.292725,469.686523 640.734863,468.778442 
	C632.106689,463.749084 623.739685,458.173676 614.773682,453.839325 
	C580.016663,437.037231 543.377991,429.873016 504.728180,432.815063 
	C466.826172,435.700226 432.065430,447.440826 400.682007,468.799469 
	C396.288391,471.789642 394.269135,471.028809 390.941132,467.687744 
	C343.191437,419.749756 295.313324,371.939728 247.457001,324.108002 
	C246.102768,322.754456 244.648758,321.500763 243.306686,320.260925 
	C242.573547,320.861877 242.204559,321.015900 242.088104,321.280853 
	C232.312927,343.526947 222.503830,365.758820 212.942093,388.096497 
	C212.406433,389.347839 213.422211,391.968079 214.557693,393.124939 
	C233.233780,412.152130 252.015884,431.075714 270.833862,449.963074 
	C294.216614,473.431976 317.618591,496.882050 341.120667,520.231140 
	C343.593140,522.687500 343.898071,524.341125 341.882263,527.350464 
	C312.182983,571.687195 299.835663,620.350952 305.879211,673.511719 
	C309.831665,708.278320 321.707092,740.135620 341.465302,768.980103 
	C343.966339,772.631348 343.808167,774.645508 340.703430,777.709229 
	C320.538116,797.608582 300.620148,817.758545 280.470184,837.673645 
	C277.479187,840.629822 276.605591,842.723572 279.572540,846.333862 
	C288.031799,856.627197 295.972229,867.347656 304.457642,877.618530 
	C310.019348,884.350586 316.172882,890.593628 323.068146,898.160461 
	C324.699158,895.840637 325.565735,894.138489 326.849274,892.852539 
	C348.150055,871.511841 369.582031,850.301086 390.765656,828.845093 
	C394.223114,825.343140 396.571503,824.952454 400.763550,827.793579 
	C439.522217,854.062927 482.366791,866.040833 529.183533,864.258545 
	C569.684692,862.716736 606.738831,850.796753 640.236877,828.063416 
	C644.516479,825.159119 646.848083,825.272461 650.571106,829.009827 
	C713.613342,892.294189 776.855286,955.379517 839.900513,1018.660889 
	C843.404724,1022.178284 846.167908,1022.682495 850.693420,1021.022095 
	C913.287903,998.056091 969.241150,964.167297 1018.234741,918.981201 
	C1064.941162,875.904541 1102.032104,825.640808 1129.501221,768.290894 
	C1159.266357,706.147583 1175.327759,640.613525 1177.855835,571.826599 
	C1178.454346,555.541382 1177.794800,539.181519 1177.090576,522.882874 
	C1175.632568,489.138153 1169.793823,456.040100 1160.905029,423.500977 
	C1138.913574,342.998169 1099.274536,272.285431 1041.911987,211.713455 
	C990.465027,157.388077 929.660156,116.769753 859.788574,89.895897 
	C805.005981,68.825562 748.280945,57.513416 689.530945,56.964161 
	C677.569397,56.852337 665.565491,57.179310 653.641541,58.092545 
	C635.740601,59.463543 617.731079,60.550392 600.050903,63.471912 
	C522.619568,76.266853 452.107117,105.921242 387.991486,152.480286 
z"/>
<path fill="#98C0B4" opacity="1.000000" stroke="none" 
	d="
M388.278931,152.265656 
	C452.107117,105.921242 522.619568,76.266853 600.050903,63.471912 
	C617.731079,60.550392 635.740601,59.463543 653.641541,58.092545 
	C665.565491,57.179310 677.569397,56.852337 689.530945,56.964161 
	C748.280945,57.513416 805.005981,68.825562 859.788574,89.895897 
	C929.660156,116.769753 990.465027,157.388077 1041.911987,211.713455 
	C1099.274536,272.285431 1138.913574,342.998169 1160.905029,423.500977 
	C1169.793823,456.040100 1175.632568,489.138153 1177.090576,522.882874 
	C1177.794800,539.181519 1178.454346,555.541382 1177.855835,571.826599 
	C1175.327759,640.613525 1159.266357,706.147583 1129.501221,768.290894 
	C1102.032104,825.640808 1064.941162,875.904541 1018.234741,918.981201 
	C969.241150,964.167297 913.287903,998.056091 850.693420,1021.022095 
	C846.167908,1022.682495 843.404724,1022.178284 839.900513,1018.660889 
	C776.855286,955.379517 713.613342,892.294189 650.571106,829.009827 
	C646.848083,825.272461 644.516479,825.159119 640.236877,828.063416 
	C606.738831,850.796753 569.684692,862.716736 529.183533,864.258545 
	C482.366791,866.040833 439.522217,854.062927 400.763550,827.793579 
	C396.571503,824.952454 394.223114,825.343140 390.765656,828.845093 
	C369.582031,850.301086 348.150055,871.511841 326.849274,892.852539 
	C325.565735,894.138489 324.699158,895.840637 323.068146,898.160461 
	C316.172882,890.593628 310.019348,884.350586 304.457642,877.618530 
	C295.972229,867.347656 288.031799,856.627197 279.572540,846.333862 
	C276.605591,842.723572 277.479187,840.629822 280.470184,837.673645 
	C300.620148,817.758545 320.538116,797.608582 340.703430,777.709229 
	C343.808167,774.645508 343.966339,772.631348 341.465302,768.980103 
	C321.707092,740.135620 309.831665,708.278320 305.879211,673.511719 
	C299.835663,620.350952 312.182983,571.687195 341.882263,527.350464 
	C343.898071,524.341125 343.593140,522.687500 341.120667,520.231140 
	C317.618591,496.882050 294.216614,473.431976 270.833862,449.963074 
	C252.015884,431.075714 233.233780,412.152130 214.557693,393.124939 
	C213.422211,391.968079 212.406433,389.347839 212.942093,388.096497 
	C222.503830,365.758820 232.312927,343.526947 242.088104,321.280853 
	C242.204559,321.015900 242.573547,320.861877 243.306686,320.260925 
	C244.648758,321.500763 246.102768,322.754456 247.457001,324.108002 
	C295.313324,371.939728 343.191437,419.749756 390.941132,467.687744 
	C394.269135,471.028809 396.288391,471.789642 400.682007,468.799469 
	C432.065430,447.440826 466.826172,435.700226 504.728180,432.815063 
	C543.377991,429.873016 580.016663,437.037231 614.773682,453.839325 
	C623.739685,458.173676 632.106689,463.749084 640.734863,468.778442 
	C642.292725,469.686523 643.782104,470.712006 645.842529,472.027771 
	C713.506653,403.520294 781.030151,335.155121 849.068787,266.268463 
	C784.469177,210.290344 709.271667,172.559402 624.303589,154.625717 
	C539.392578,136.704102 455.291351,140.936249 372.177887,166.066360 
	C371.993286,165.695007 371.808655,165.323654 371.624054,164.952301 
	C377.079865,160.794968 382.535675,156.637619 388.278931,152.265656 
M706.504639,513.004883 
	C704.262268,515.239014 702.171326,517.657227 699.737915,519.659119 
	C696.909424,521.985962 697.188232,523.901306 699.138794,526.797729 
	C726.972839,568.129517 739.649597,613.571228 736.176086,663.449524 
	C734.337280,689.854614 728.057678,715.087891 716.565857,738.879517 
	C710.863037,750.686157 704.058716,761.960876 697.518311,773.904114 
	C765.439636,841.284790 833.729492,909.031067 902.558594,977.312378 
	C990.463318,872.704468 1032.524536,751.571106 1023.707947,614.024597 
	C1016.543701,502.254089 974.897461,404.048615 901.556396,318.347412 
	C836.210144,383.562134 771.608093,448.034149 706.504639,513.004883 
M572.910034,749.415894 
	C576.507507,744.842773 580.407654,740.473389 583.647339,735.659485 
	C594.633118,719.335449 596.808899,700.634033 596.920532,681.696777 
	C597.191589,635.709717 597.011230,589.719971 597.006470,543.731262 
	C597.005737,536.648987 596.708069,536.228088 589.840881,536.251892 
	C551.857910,536.383423 513.875183,536.624634 475.892181,536.692139 
	C471.951080,536.699158 470.640747,538.081848 470.714722,541.949402 
	C470.902740,551.776733 470.976990,561.615967 470.685699,571.438232 
	C470.552246,575.938660 472.181152,577.082214 476.474915,577.041321 
	C496.634796,576.849365 516.797913,577.022949 536.958862,576.897888 
	C540.535645,576.875732 542.050354,577.811401 541.935547,581.669678 
	C540.767395,620.911743 544.244629,660.239441 539.996216,699.416626 
	C538.534485,712.896240 531.623169,723.064819 519.222839,729.110046 
	C508.690796,734.244385 497.529083,733.798645 486.401917,732.241638 
	C476.223358,730.817322 466.760559,727.177307 458.179535,721.401550 
	C455.802124,719.801392 453.545074,718.690857 451.498779,722.089539 
	C446.172516,730.936035 440.761963,739.733398 435.258514,748.470642 
	C433.401428,751.418884 434.000061,753.325317 436.936005,754.947144 
	C441.161591,757.281433 445.229156,759.910461 449.506287,762.141235 
	C473.043396,774.417480 498.070862,776.175293 523.847229,772.494263 
	C542.311707,769.857361 558.727173,762.827454 572.910034,749.415894 
z"/>
<path fill="#F4ECDC" opacity="1.000000" stroke="none" 
	d="
M706.755371,512.755493 
	C771.608093,448.034149 836.210144,383.562134 901.556396,318.347412 
	C974.897461,404.048615 1016.543701,502.254089 1023.707947,614.024597 
	C1032.524536,751.571106 990.463318,872.704468 902.558594,977.312378 
	C833.729492,909.031067 765.439636,841.284790 697.518311,773.904114 
	C704.058716,761.960876 710.863037,750.686157 716.565857,738.879517 
	C728.057678,715.087891 734.337280,689.854614 736.176086,663.449524 
	C739.649597,613.571228 726.972839,568.129517 699.138794,526.797729 
	C697.188232,523.901306 696.909424,521.985962 699.737915,519.659119 
	C702.171326,517.657227 704.262268,515.239014 706.755371,512.755493 
z"/>
<path fill="#F4ECDC" opacity="1.000000" stroke="none" 
	d="
M572.660645,749.665771 
	C558.727173,762.827454 542.311707,769.857361 523.847229,772.494263 
	C498.070862,776.175293 473.043396,774.417480 449.506287,762.141235 
	C445.229156,759.910461 441.161591,757.281433 436.936005,754.947144 
	C434.000061,753.325317 433.401428,751.418884 435.258514,748.470642 
	C440.761963,739.733398 446.172516,730.936035 451.498779,722.089539 
	C453.545074,718.690857 455.802124,719.801392 458.179535,721.401550 
	C466.760559,727.177307 476.223358,730.817322 486.401917,732.241638 
	C497.529083,733.798645 508.690796,734.244385 519.222839,729.110046 
	C531.623169,723.064819 538.534485,712.896240 539.996216,699.416626 
	C544.244629,660.239441 540.767395,620.911743 541.935547,581.669678 
	C542.050354,577.811401 540.535645,576.875732 536.958862,576.897888 
	C516.797913,577.022949 496.634796,576.849365 476.474915,577.041321 
	C472.181152,577.082214 470.552246,575.938660 470.685699,571.438232 
	C470.976990,561.615967 470.902740,551.776733 470.714722,541.949402 
	C470.640747,538.081848 471.951080,536.699158 475.892181,536.692139 
	C513.875183,536.624634 551.857910,536.383423 589.840881,536.251892 
	C596.708069,536.228088 597.005737,536.648987 597.006470,543.731262 
	C597.011230,589.719971 597.191589,635.709717 596.920532,681.696777 
	C596.808899,700.634033 594.633118,719.335449 583.647339,735.659485 
	C580.407654,740.473389 576.507507,744.842773 572.660645,749.665771 
z"/>
</svg>