<?xml version="1.0" encoding="UTF-8"?>
<!DOCTYPE svg PUBLIC "-//W3C//DTD SVG 1.1//EN" "http://www.w3.org/Graphics/SVG/1.1/DTD/svg11.dtd">
<svg xmlns="http://www.w3.org/2000/svg" version="1.1" width="1200px" height="1200px" style="shape-rendering:geometricPrecision; text-rendering:geometricPrecision; image-rendering:optimizeQuality; fill-rule:evenodd; clip-rule:evenodd" xmlns:xlink="http://www.w3.org/1999/xlink">
<g><path style="opacity:0.996" fill="#f4ecdc" d="M 648.5,47.5 C 789.551,41.5652 912.885,84.7318 1018.5,177C 1138.73,290.7 1193.56,430.534 1183,596.5C 1167.59,741.189 1103.76,859.023 991.5,950C 957.276,976.294 920.276,998.294 880.5,1016C 770.641,1088.88 650.308,1115.54 519.5,1096C 426.678,1080.58 344.678,1042.58 273.5,982C 271.671,980.887 270.837,979.387 271,977.5C 291.014,957.653 310.847,937.653 330.5,917.5C 314.073,900.911 298.573,883.578 284,865.5C 263.275,886.225 242.442,907.058 221.5,928C 220.833,928.667 220.167,928.667 219.5,928C 138.456,833.979 97.4558,724.479 96.5,599.5C 98.0462,474.501 139.213,364.835 220,270.5C 228.221,278.054 236.054,285.887 243.5,294C 244.449,294.617 245.282,294.451 246,293.5C 257.687,273.454 270.854,254.454 285.5,236.5C 280.656,230.825 275.656,225.325 270.5,220C 301.913,191.936 336.579,168.603 374.5,150C 455.559,88.9176 546.893,54.751 648.5,47.5 Z M 922.5,984.5 C 924.604,982.901 926.604,981.068 928.5,979C 861.42,910.587 793.254,842.42 724,774.5C 654.959,820.111 582.459,826.278 506.5,793C 495.837,788.006 485.837,782.006 476.5,775C 475.5,774.333 474.5,774.333 473.5,775C 428.027,820.473 382.527,865.973 337,911.5C 320.058,894.896 304.224,877.396 289.5,859C 333.536,815.155 377.703,771.322 422,727.5C 422.635,726.034 423.469,724.7 424.5,723.5C 384.933,666.093 374.766,603.76 394,536.5C 401.003,514.493 411.17,494.16 424.5,475.5C 366.272,417.109 308.606,358.942 251.5,301C 263.44,280.398 276.94,260.898 292,242.5C 352.419,302.919 412.919,363.419 473.5,424C 474.5,424.667 475.5,424.667 476.5,424C 533.397,385.351 595.064,375.351 661.5,394C 683.953,400.727 704.619,410.894 723.5,424.5C 792.23,356.27 860.563,288.103 928.5,220C 811.988,121.513 677.654,82.1794 525.5,102C 489.923,107.394 455.256,116.228 421.5,128.5C 523.699,67.2926 634.033,44.7926 752.5,61C 907.677,87.2741 1026.18,167.107 1108,300.5C 1176.14,420.914 1193.14,548.247 1159,682.5C 1122.21,809.903 1047.71,908.403 935.5,978C 931.256,980.428 926.922,982.594 922.5,984.5 Z"/></g>
<g><path style="opacity:0.997" fill="#f4ecdc" d="M 977.5,270.5 C 979.371,270.859 980.871,271.859 982,273.5C 1071.53,381.419 1110.86,505.419 1100,645.5C 1089.24,753.069 1048.74,847.402 978.5,928.5C 909.724,860.725 841.724,792.391 774.5,723.5C 819.726,655.411 826.226,583.744 794,508.5C 788.674,497.173 782.341,486.506 775,476.5C 774.333,475.5 774.333,474.5 775,473.5C 842.728,405.938 910.228,338.272 977.5,270.5 Z"/></g>
<g><path style="opacity:0.984" fill="#f4ecdc" d="M 543.5,440.5 C 591.168,440.333 638.834,440.5 686.5,441C 687.416,441.374 688.25,441.874 689,442.5C 689.667,502.5 689.667,562.5 689,622.5C 684.434,678.067 654.601,710.234 599.5,719C 561.417,724.677 527.083,716.177 496.5,693.5C 504.271,680.554 512.271,667.721 520.5,655C 521.5,654.333 522.5,654.333 523.5,655C 542.463,668.002 563.463,673.002 586.5,670C 609.236,663.573 621.403,648.406 623,624.5C 623.5,579.501 623.667,534.501 623.5,489.5C 595.833,489.5 568.167,489.5 540.5,489.5C 540.5,473.5 540.5,457.5 540.5,441.5C 541.791,441.737 542.791,441.404 543.5,440.5 Z"/></g>
</svg>
